<?xml version="1.0" encoding="utf-8"?>
<!-- Generator: Adobe Illustrator 25.0.0, SVG Export Plug-In . SVG Version: 6.00 Build 0)  -->
<svg version="1.1" id="Layer_1" xmlns="http://www.w3.org/2000/svg" xmlns:xlink="http://www.w3.org/1999/xlink" x="0px" y="0px"
	 viewBox="0 0 311.69 68.03" style="enable-background:new 0 0 311.69 68.03;" xml:space="preserve">
<polygon points="298.08,53.75 298.08,33.4 277.78,53.71 "/>
<polygon points="277.78,53.75 277.78,33.4 257.47,53.71 "/>
<polygon points="257.47,13.29 257.47,33.63 277.78,13.32 "/>
<polygon points="277.78,13.29 277.78,33.63 298.08,13.32 "/>
<g>
	<path d="M10.08,53.62v-7.27h9.69V20.51h-9.69v-7.27h26.99v7.27h-9.69v25.84h9.69v7.27H10.08z"/>
	<path d="M42.5,53.62V13.24h13.38l2.31,30.34v5.88h1.38v-5.88l2.31-30.34h13.38v40.37h-6.92V26.62l0.69-9.23h-1.38l-3,36.22H53.23
		L50.11,17.4h-1.38l0.69,9.23v26.99H42.5z"/>
	<path d="M80.68,53.62V13.24h15.8c2.77,0,5.07,0.57,6.89,1.7c1.83,1.13,3.19,2.6,4.1,4.38c0.9,1.79,1.36,3.66,1.36,5.62v1.38
		c0,2-0.45,3.92-1.36,5.77c-0.9,1.85-2.27,3.36-4.1,4.53c-1.83,1.17-4.12,1.76-6.89,1.76H88.3v15.23H80.68z M88.3,31.12h7.44
		c1.69,0,3.03-0.46,4.01-1.38s1.47-2.11,1.47-3.58v-0.69c0-1.46-0.49-2.65-1.47-3.58s-2.32-1.38-4.01-1.38H88.3V31.12z"/>
	<path d="M116.56,53.62V13.24h25.49v7.27h-17.88v9.23h17.19v7.27h-17.19v9.34h18.57v7.27H116.56z"/>
	<path d="M149.78,53.62v-7.33h3.81V20.51h-3.81v-7.27h14.65c4.96,0,8.66,1.17,11.1,3.52c2.44,2.35,3.66,5.94,3.66,10.79v11.77
		c0,4.84-1.22,8.44-3.66,10.79c-2.44,2.35-6.14,3.52-11.1,3.52H149.78z M161.2,46.35h3.23c2.65,0,4.51-0.62,5.57-1.87
		c1.06-1.25,1.59-3.2,1.59-5.85V27.55c0-2.31-0.53-4.06-1.59-5.25c-1.06-1.19-2.91-1.79-5.57-1.79h-3.23V46.35z"/>
	<path d="M183.29,53.62l9.63-40.37h14.3l9.63,40.37h-7.96l-1.96-8.65h-13.73l-1.96,8.65H183.29z M194.83,37.7h10.44l-4.67-20.65
		h-1.04L194.83,37.7z"/>
	<path d="M221.24,53.62V13.24h14.88l4.73,36.57h1.04V13.24h7.61v40.37h-14.88l-4.73-36.57h-1.04v36.57H221.24z"/>
</g>
</svg>
